HIERARCHY
ROOT Hips
{
	OFFSET 0.000000 0.000000 0.000000
	CHANNELS 6 Xposition Yposition Zposition Zrotation Yrotation Xrotation 
	JOINT LHipJoint
	{
		OFFSET 0.000000 0.000000 0.000000
		CHANNELS 3 Zrotation Yrotation Xrotation
		JOINT LeftUpLeg
		{
			OFFSET 1.363060 -1.794630 0.839290
			CHANNELS 3 Zrotation Yrotation Xrotation
			JOINT LeftLeg
			{
				OFFSET 2.448110 -6.726130 0.000000
				CHANNELS 3 Zrotation Yrotation Xrotation
				JOINT LeftFoot
				{
					OFFSET 2.562200 -7.039590 0.000000
					CHANNELS 3 Zrotation Yrotation Xrotation
					JOINT LeftToeBase
					{
						OFFSET 0.157640 -0.433110 2.322550
						CHANNELS 3 Zrotation Yrotation Xrotation
						End Site
						{
							OFFSET 0.000000 0.000000 0.000000
						}
					}
				}
			}
		}
	}
	JOINT RHipJoint
	{
		OFFSET 0.000000 0.000000 0.000000
		CHANNELS 3 Zrotation Yrotation Xrotation
		JOINT RightUpLeg
		{
			OFFSET -1.305520 -1.794630 0.839290
			CHANNELS 3 Zrotation Yrotation Xrotation
			JOINT RightLeg
			{
				OFFSET -2.542530 -6.985550 0.000000
				CHANNELS 3 Zrotation Yrotation Xrotation
				JOINT RightFoot
				{
					OFFSET -2.568260 -7.056230 0.000000
					CHANNELS 3 Zrotation Yrotation Xrotation
					JOINT RightToeBase
					{
						OFFSET -0.164730 -0.452590 2.363150
						CHANNELS 3 Zrotation Yrotation Xrotation
						End Site
						{
							OFFSET 0.000000 0.000000 0.000000
						}
					}
				}
			}
		}
	}
	JOINT LowerBack
	{
		OFFSET 0.000000 0.000000 0.000000
		CHANNELS 3 Zrotation Yrotation Xrotation
		JOINT Spine
		{
			OFFSET 0.028270 2.035590 -0.193380
			CHANNELS 3 Zrotation Yrotation Xrotation
			JOINT Spine1
			{
				OFFSET 0.056720 2.048850 -0.042750
				CHANNELS 3 Zrotation Yrotation Xrotation
				JOINT Neck
				{
					OFFSET 0.000000 0.000000 0.000000
					CHANNELS 3 Zrotation Yrotation Xrotation
					JOINT Neck1
					{
						OFFSET -0.054170 1.746240 0.172020
						CHANNELS 3 Zrotation Yrotation Xrotation
						JOINT Head
						{
							OFFSET 0.104070 1.761360 -0.123970
							CHANNELS 3 Zrotation Yrotation Xrotation
							End Site
							{
								OFFSET 0.000000 0.000000 0.000000
							}
						}
					}
				}
				JOINT LeftShoulder
				{
					OFFSET 0.000000 0.000000 0.000000
					CHANNELS 3 Zrotation Yrotation Xrotation
					JOINT LeftArm
					{
						OFFSET 3.362410 1.200890 -0.311210
						CHANNELS 3 Zrotation Yrotation Xrotation
						JOINT LeftForeArm
						{
							OFFSET 4.983000 -0.000000 -0.000000
							CHANNELS 3 Zrotation Yrotation Xrotation
							JOINT LeftHand
							{
								OFFSET 3.483560 -0.000000 -0.000000
								CHANNELS 3 Zrotation Yrotation Xrotation
								JOINT LeftFingerBase
								{
									OFFSET 0.000000 0.000000 0.000000
									CHANNELS 3 Zrotation Yrotation Xrotation
									JOINT LeftHandIndex1
									{
										OFFSET 0.715260 -0.000000 -0.000000
										CHANNELS 3 Zrotation Yrotation Xrotation
										End Site
										{
											OFFSET 0.000000 0.000000 0.000000
										}
									}
								}
								JOINT LThumb
								{
									OFFSET 0.000000 0.000000 0.000000
									CHANNELS 3 Zrotation Yrotation Xrotation
									End Site
									{
										OFFSET 0.000000 0.000000 0.000000
									}
								}
							}
						}
					}
				}
				JOINT RightShoulder
				{
					OFFSET 0.000000 0.000000 0.000000
					CHANNELS 3 Zrotation Yrotation Xrotation
					JOINT RightArm
					{
						OFFSET -3.136600 1.374050 -0.404650
						CHANNELS 3 Zrotation Yrotation Xrotation
						JOINT RightForeArm
						{
							OFFSET -5.241900 -0.000000 -0.000000
							CHANNELS 3 Zrotation Yrotation Xrotation
							JOINT RightHand
							{
								OFFSET -3.444170 -0.000000 -0.000000
								CHANNELS 3 Zrotation Yrotation Xrotation
								JOINT RightFingerBase
								{
									OFFSET 0.000000 0.000000 0.000000
									CHANNELS 3 Zrotation Yrotation Xrotation
									JOINT RightHandIndex1
									{
										OFFSET -0.622530 -0.000000 -0.000000
										CHANNELS 3 Zrotation Yrotation Xrotation
										End Site
										{
											OFFSET 0.000000 0.000000 0.000000
										}
									}
								}
								JOINT RThumb
								{
									OFFSET 0.000000 0.000000 0.000000
									CHANNELS 3 Zrotation Yrotation Xrotation
									End Site
									{
										OFFSET 0.000000 0.000000 0.000000
									}
								}
							}
						}
					}
				}
			}
		}
	}
}
MOTION
Frames: 7
Frame Time: 0.008333
0.592077 17.609010 -8.178391 -4.751760 -3.411800 3.611048 2.117980 1.449883 0.617302 -11.660429 -12.051686 -31.895455 2.568288 11.618483 33.030242 -1.594084 9.140195 2.779687 0.078900 -1.812000 -4.986300 -3.541871 -2.882724 0.650270 34.166457 4.577928 4.988957 -0.704446 -4.498852 16.294197 0.614156 -4.547436 -6.914850 -0.062200 1.609100 -4.426400 5.415043 2.856505 6.117196 0.969027 3.825138 -1.281462 -0.191068 2.359162 -3.342585 -7.600119 -4.027250 -12.880903 4.269642 -4.425947 12.829927 3.031600 -2.424500 9.313500 -7.592074 3.241882 -2.285276 -80.775619 5.514360 16.128632 9.188775 -17.509196 -1.533545 -0.907180 -3.015010 14.665202 12.019857 23.163143 5.470700 -7.125000 0.000000 0.000000 -19.178900 55.821700 -5.230200 5.703270 -2.138903 -2.060208 81.128447 2.786066 18.300465 -15.836307 23.572659 -4.329125 0.969283 -0.482185 7.091108 -14.795343 11.312462 -3.268200 7.125000 0.000000 0.000000 7.933000 -17.973100 5.147700
0.595650 17.599403 -8.074471 -4.746975 -3.526936 3.718273 2.071605 1.430674 0.598077 -11.484012 -12.304954 -31.875019 2.263624 11.188072 31.586111 -1.621757 9.321259 3.259499 0.087215 -1.902941 -5.237472 -3.517400 -2.883547 0.649732 34.047293 4.278338 5.394512 -0.659297 -4.351597 15.899194 0.600078 -4.476510 -6.937362 -0.057638 1.548357 -4.259068 5.435673 2.946070 6.090519 0.946285 3.940487 -1.289509 -0.276523 2.418768 -3.319066 -7.636155 -4.066259 -13.038844 4.341487 -4.467898 12.865523 3.061798 -2.437723 9.373608 -7.613477 3.237382 -2.272178 -80.812053 5.404004 15.661820 8.997867 -17.144337 -1.449857 -0.952699 -2.986196 14.941660 12.241844 22.930203 5.539873 -7.125000 0.000000 0.000000 -18.772695 55.635949 -5.029321 5.694011 -2.121515 -2.060303 81.016052 3.063126 18.470209 -15.898335 23.654779 -4.348216 1.036574 -0.594689 6.944756 -15.639434 12.503933 -3.862293 7.125000 0.000000 0.000000 7.302762 -16.573930 4.942201
0.599302 17.589686 -7.970206 -4.749276 -3.646998 3.815714 2.024680 1.412284 0.579548 -11.305033 -12.539833 -31.837249 1.964549 10.754152 30.147965 -1.642616 9.469968 3.708667 0.105437 -2.077822 -5.721279 -3.493793 -2.884360 0.649651 33.937216 3.989452 5.804417 -0.617332 -4.213085 15.530081 0.580812 -4.388772 -6.988764 -0.051188 1.455924 -4.004406 5.462924 3.031392 6.070576 0.925967 4.051310 -1.299429 -0.355639 2.476258 -3.307784 -7.673838 -4.096310 -13.166192 4.411375 -4.498852 12.902252 3.093359 -2.446719 9.426718 -7.630725 3.235363 -2.263861 -80.847100 5.371326 15.236842 8.841890 -16.847408 -1.378838 -0.987870 -2.973378 15.144202 12.418523 22.845564 5.615827 -7.125000 0.000000 0.000000 -18.517354 55.592608 -4.936670 5.684492 -2.105851 -2.059923 80.906737 3.329692 18.645300 -15.958658 23.733987 -4.369626 1.087765 -0.679114 6.755593 -16.270139 13.422570 -4.316003 7.125000 0.000000 0.000000 6.832707 -15.497063 4.793317
0.603168 17.579669 -7.864997 -4.770922 -3.780504 3.886444 1.976252 1.396130 0.562919 -11.119059 -12.724514 -31.752162 1.680732 10.310653 28.726156 -1.644874 9.530362 4.074184 0.150706 -2.481833 -6.840118 -3.472547 -2.885145 0.650813 33.851941 3.729786 6.226198 -0.584057 -4.098439 15.231644 0.547388 -4.255142 -7.119028 -0.039582 1.276986 -3.511359 5.508254 3.105129 6.069015 0.912266 4.149781 -1.314461 -0.417449 2.527977 -3.329905 -7.716015 -4.101910 -13.210030 4.475922 -4.499783 12.942075 3.128638 -2.444178 9.460728 -7.636633 3.240115 -2.268596 -80.878364 5.550691 14.926058 8.781267 -16.735907 -1.342403 -0.994797 -3.004223 15.144976 12.471527 23.165747 5.710291 -7.125000 0.000000 0.000000 -18.673831 55.938013 -5.139455 5.674262 -2.094894 -2.058248 80.805828 3.567615 18.834989 -16.014330 23.805246 -4.397363 1.095006 -0.686891 6.449571 -16.318359 13.596445 -4.386504 7.125000 0.000000 0.000000 6.799910 -15.299994 4.798976
0.605118 17.571976 -7.757308 -4.851289 -3.914497 3.908849 1.929104 1.381767 0.547916 -10.877129 -12.830136 -31.661493 1.416195 9.876310 27.357685 -1.631407 9.522856 4.418694 0.196965 -2.845376 -7.849351 -3.456334 -2.886012 0.652223 33.855245 3.475212 6.709040 -0.549732 -3.978575 14.921465 0.513366 -4.106158 -7.195797 -0.028472 1.075043 -2.955397 5.586122 3.159261 6.104632 0.915430 4.228313 -1.335600 -0.453261 2.569401 -3.393762 -7.733569 -4.084825 -13.209126 4.493794 -4.473705 12.971513 3.142647 -2.432844 9.476005 -7.633910 3.246138 -2.278468 -80.914174 5.833407 14.685717 8.754589 -16.692142 -1.319463 -0.978077 -3.051595 15.070386 12.359222 23.632850 5.745957 -7.125000 0.000000 0.000000 -19.125998 56.392249 -5.489497 5.664772 -2.089464 -2.059492 80.709136 3.735676 19.024359 -16.088976 23.900809 -4.436387 1.097242 -0.671003 6.319750 -16.337791 13.481169 -4.352290 7.125000 0.000000 0.000000 6.784824 -15.431157 4.768935
0.605412 17.566294 -7.647472 -4.982443 -4.048911 3.889458 1.883063 1.368955 0.534319 -10.586804 -12.867384 -31.565996 1.168333 9.449885 26.035344 -1.604338 9.456626 4.745036 0.244082 -3.173920 -8.763788 -3.444476 -2.886950 0.653846 33.935156 3.225041 7.244690 -0.514500 -3.854198 14.601133 0.478826 -3.943897 -7.226300 -0.017790 0.853203 -2.345021 5.692131 3.196438 6.172404 0.933178 4.289603 -1.362021 -0.466587 2.601921 -3.493714 -7.729825 -4.048120 -13.169526 4.471299 -4.424267 12.991970 3.138259 -2.413905 9.475081 -7.623722 3.253259 -2.292782 -80.953916 6.205510 14.506301 8.757269 -16.706961 -1.308194 -0.940904 -3.113261 14.930615 12.103947 24.227020 5.730771 -7.125000 0.000000 0.000000 -19.833898 56.940612 -5.966896 5.655922 -2.088813 -2.063260 80.616090 3.843316 19.213455 -16.180032 24.017390 -4.485173 1.095150 -0.634650 6.342319 -16.332325 13.115817 -4.227513 7.125000 0.000000 0.000000 6.785055 -15.846197 4.708018
0.606458 17.559763 -7.534856 -5.013454 -4.217913 3.850259 1.839223 1.359896 0.521905 -10.369028 -13.064362 -31.420637 0.958781 9.059451 24.846862 -1.642092 9.606745 4.758988 0.271134 -3.347435 -9.247787 -3.429542 -2.889904 0.650800 33.883601 2.926133 7.795050 -0.474054 -3.707519 14.213415 0.484481 -3.904876 -6.995015 -0.016675 0.834090 -2.292386 5.700335 3.256608 6.222351 0.941036 4.371950 -1.365112 -0.459710 2.645341 -3.524372 -7.745059 -4.054592 -13.172955 4.459797 -4.425508 12.966345 3.134288 -2.416331 9.467005 -7.625505 3.258316 -2.289834 -81.037270 6.356370 14.029799 8.678065 -16.560025 -1.271031 -0.947957 -3.119117 15.189851 12.035894 24.328847 5.715585 -7.125000 0.000000 0.000000 -19.981271 57.028812 -6.053751 5.650620 -2.085700 -2.067041 80.499074 3.965511 19.396127 -16.281341 24.151121 -4.543453 1.078360 -0.572713 6.287011 -16.121680 12.519335 -3.974087 7.125000 0.000000 0.000000 6.939107 -16.539061 4.709011
